<svg id="Layer_1" data-name="Layer 1" xmlns="http://www.w3.org/2000/svg" viewBox="0 0 406.485 214.26">
    <defs>
        <style>
            .cls-1, .cls-2 {
            fill: #fff;
            }

            .cls-2 {
            fill-rule: evenodd;
            }
        </style>
    </defs>
    <title>LZ_logo_white</title>
    <g>
        <path class="cls-1"
              d="M61.36,0a61.365,61.365,0,1,0,61.368,61.375A61.36,61.36,0,0,0,61.36,0Zm8.625,90.465C67.1,107.093,44.833,112.832,30.92,113.1c-.75,0-.623-.534-.272-.818,4.156-3.156,4.145-11.154,2.582-15.555-3.695-9.924-18.022-15.26-20.676-25.7a17.426,17.426,0,0,1-.1-6.082c2.9-16.079,23.494-21.812,37.409-22.391,1.757-.093,1.923.373,1.421.868-3.6,3.45-3.6,11.149-2.041,15.285C53.715,70.412,72.6,75.626,69.985,90.465Zm.054-10.424c-.755,0-.63-.544-.272-.818,4.136-3.141,4.124-11.129,2.573-15.5-3.686-9.88-17.968-15.216-20.6-25.606a17.066,17.066,0,0,1-.1-6.062c2.894-16.01,23.4-21.729,37.271-22.3,1.742-.1,1.914.358,1.409.863-3.59,3.425-3.59,11.105-2.017,15.226,4.427,11.664,23.26,16.848,20.658,31.638C106.086,74.053,83.891,79.772,70.04,80.042Z"/>
        <g>
            <path class="cls-1"
                  d="M129.192,172.163c-2.291-1.887-5.572-2.856-9.745-2.856a34.432,34.432,0,0,0-5.611.44,31.383,31.383,0,0,0-5.626,1.466l-.833.3-.828,6.9,2.267-.941a26.163,26.163,0,0,1,4.653-1.416,24.863,24.863,0,0,1,5.243-.523,8.091,8.091,0,0,1,5.339,1.509,3.3,3.3,0,0,1,1.027,3.564,9.358,9.358,0,0,1-3.283,5.282,9.487,9.487,0,0,1-6.2,2.3H108.19l-1.367,4.969H114.8a7.581,7.581,0,0,1,5.074,1.99c1.271,1.121,1.646,3,1.154,5.258a8.643,8.643,0,0,1-4.4,5.934,12.816,12.816,0,0,1-6.3,1.637,30.494,30.494,0,0,1-5.244-.417,14.934,14.934,0,0,1-4.45-1.484l-1.426-.75-2.48,6.386,1.289.544a24.2,24.2,0,0,0,5.136,1.475,35.564,35.564,0,0,0,6.434.525,20.681,20.681,0,0,0,12.036-3.52,15.24,15.24,0,0,0,6.488-9.477c.738-3.362.262-6.155-1.419-8.3a8.383,8.383,0,0,0-2.3-2.039,14.673,14.673,0,0,0,4.805-3.816,13.934,13.934,0,0,0,2.774-5.881C132.792,177.465,131.831,174.334,129.192,172.163Z"/>
            <path class="cls-1"
                  d="M174.768,173.275l-27.591,39.778h7.652l7.188-9.943h19.59l2.387,9.943h7.2l-9.3-39.778Zm-8.943,24.861,10.409-17.579.359-.112,3.7,17.691Z"/>
            <polygon class="cls-1"
                     points="248.23 173.275 227.329 190.08 231.02 173.275 224.114 173.275 214.421 213.054 221.326 213.054 225.496 194.098 240.734 213.054 250.067 213.054 231.078 192.295 257.929 173.275 248.23 173.275"/>
            <polygon class="cls-1"
                     points="372.51 173.275 368.506 188.193 349.535 188.193 353.542 173.275 346.632 173.275 336.94 213.054 343.851 213.054 348.168 193.162 367.134 193.162 362.816 213.054 369.726 213.054 379.419 173.275 372.51 173.275"/>
            <path class="cls-1"
                  d="M299.449,169.689a24,24,0,0,0-23.59,22.048,20.285,20.285,0,0,0,20.51,22.047,24.018,24.018,0,0,0,23.586-22.047A20.288,20.288,0,0,0,299.449,169.689Zm14.211,21.606a17.634,17.634,0,0,1-17.291,16.182,13.995,13.995,0,0,1-14.222-15.3A17.638,17.638,0,0,1,299.449,176a13.97,13.97,0,0,1,14.211,15.295Z"/>
        </g>
        <g>
            <path class="cls-2"
                  d="M354.774,152.228h24.454L367.981,73.47H336.9l-36.922,78.758H324.43l5.709-13.247H353.4ZM337.2,122.564l11.664-27.129,2.827,27.129Z"/>
            <polygon class="cls-2"
                     points="310.193 95.067 320.325 73.47 265.784 73.47 265.765 73.47 248.864 152.227 273.466 152.227 285.734 95.067 310.193 95.067"/>
            <path class="cls-2"
                  d="M141.054,73.47l-10.041,46.776s-2.546,16.079-16,16.079l-3.769,17.617s34.931,8.155,44.174-32.775l5.6-26.1H174.31l-12.278,57.156h24.6L203.547,73.47Z"/>
            <path class="cls-1"
                  d="M396.518,73.47a9.83,9.83,0,1,1-.064,19.656,9.832,9.832,0,1,1,0-19.656Zm-.128,1.975a7.825,7.825,0,0,0,.128,15.643,7.5,7.5,0,0,0,7.459-7.757,7.621,7.621,0,0,0-7.523-7.885Zm-1.484,12.9h-2.273v-9.8a28.444,28.444,0,0,1,3.758-.294,5.189,5.189,0,0,1,3.348.779,2.441,2.441,0,0,1,1.01,2.1,2.514,2.514,0,0,1-2.024,2.313v.132c.966.294,1.437,1.078,1.737,2.382a8.97,8.97,0,0,0,.7,2.392h-2.379a8.114,8.114,0,0,1-.777-2.392c-.181-1.014-.783-1.48-2.033-1.48h-1.068Zm.054-5.5h1.073c1.26,0,2.279-.416,2.279-1.426,0-.917-.664-1.509-2.088-1.509a5.756,5.756,0,0,0-1.265.127Z"/>
            <path class="cls-2"
                  d="M242.725,93.131l-12.683,59.1h-24.6l9.806-45.669c17.706-4.121,27.453-13.433,27.453-13.433ZM219,89.107A57.578,57.578,0,0,0,246.948,73.47h-24.6l-3.354,15.638Z"/>
        </g>
    </g>
</svg>
